<svg width="512" height="512" viewBox="0 0 512 512" xmlns="http://www.w3.org/2000/svg">
  <defs>
    <linearGradient id="bg-gradient" x1="0%" y1="0%" x2="100%" y2="100%">
      <stop offset="0%" style="stop-color:#7c3aed;stop-opacity:1" />
      <stop offset="50%" style="stop-color:#3b82f6;stop-opacity:1" />
      <stop offset="100%" style="stop-color:#06b6d4;stop-opacity:1" />
    </linearGradient>
  </defs>
  <rect width="512" height="512" rx="120" fill="url(#bg-gradient)"/>
  <g transform="translate(256, 256)">
    <path d="M -30 60 L -30 -40 Q -30 -80 0 -100 Q 30 -80 30 -40 L 30 60 Z" fill="white" opacity="0.95"/>
    <circle cx="0" cy="-20" r="20" fill="url(#bg-gradient)" opacity="0.8"/>
    <path d="M -30 20 L -60 50 L -30 50 Z" fill="#e0e7ff"/>
    <path d="M 30 20 L 60 50 L 30 50 Z" fill="#e0e7ff"/>
    <ellipse cx="0" cy="70" rx="25" ry="15" fill="#fbbf24"/>
    <ellipse cx="0" cy="80" rx="20" ry="20" fill="#f59e0b"/>
    <ellipse cx="0" cy="90" rx="15" ry="15" fill="#ef4444"/>
  </g>
  <circle cx="120" cy="140" r="25" fill="#fbbf24" opacity="0.9"/>
  <text x="120" y="150" font-family="Arial" font-size="30" font-weight="bold" fill="white" text-anchor="middle">$</text>
  <circle cx="390" cy="180" r="20" fill="#f59e0b" opacity="0.8"/>
  <text x="390" y="188" font-family="Arial" font-size="24" font-weight="bold" fill="white" text-anchor="middle">$</text>
  <circle cx="380" cy="350" r="22" fill="#fbbf24" opacity="0.85"/>
  <text x="380" y="359" font-family="Arial" font-size="26" font-weight="bold" fill="white" text-anchor="middle">$</text>
  <circle cx="140" cy="370" r="18" fill="#f59e0b" opacity="0.75"/>
  <text x="140" y="377" font-family="Arial" font-size="22" font-weight="bold" fill="white" text-anchor="middle">$</text>
</svg>

