<svg width="1200" height="630" viewBox="0 0 1200 630" xmlns="http://www.w3.org/2000/svg">
  <defs>
    <linearGradient id="preview-bg" x1="0%" y1="0%" x2="100%" y2="100%">
      <stop offset="0%" style="stop-color:#7c3aed;stop-opacity:1" />
      <stop offset="50%" style="stop-color:#3b82f6;stop-opacity:1" />
      <stop offset="100%" style="stop-color:#06b6d4;stop-opacity:1" />
    </linearGradient>
  </defs>
  <rect width="1200" height="630" fill="url(#preview-bg)"/>
  <circle cx="100" cy="100" r="40" fill="white" opacity="0.1"/>
  <circle cx="1100" cy="80" r="60" fill="white" opacity="0.1"/>
  <rect x="150" y="120" width="900" height="390" rx="30" fill="white" opacity="0.95"/>
  <g transform="translate(300, 230)">
    <path d="M -20 40 L -20 -25 Q -20 -50 0 -65 Q 20 -50 20 -25 L 20 40 Z" fill="#7c3aed"/>
    <circle cx="0" cy="-10" r="12" fill="#3b82f6"/>
    <ellipse cx="0" cy="48" rx="15" ry="8" fill="#fbbf24"/>
  </g>
  <text x="450" y="250" font-family="Arial" font-size="64" font-weight="bold" fill="#1f2937">Token Launcher</text>
  <text x="450" y="310" font-family="Arial" font-size="32" fill="#6b7280">Create Your Own Token</text>
  <text x="450" y="360" font-family="Arial" font-size="32" fill="#6b7280">in Seconds 🚀</text>
  <rect x="450" y="390" width="180" height="45" rx="23" fill="#7c3aed"/>
  <text x="540" y="420" font-family="Arial" font-size="20" font-weight="bold" fill="white" text-anchor="middle">Simple Setup</text>
  <rect x="650" y="390" width="150" height="45" rx="23" fill="#3b82f6"/>
  <text x="725" y="420" font-family="Arial" font-size="20" font-weight="bold" fill="white" text-anchor="middle">40% Fees</text>
</svg>

